<mxfile host="app.diagrams.net" modified="2024-05-08T12:31:53.555Z" agent="Mozilla/5.0 (Windows NT 10.0; Win64; x64) AppleWebKit/537.36 (KHTML, like Gecko) Chrome/124.0.0.0 Safari/537.36" etag="XqOBn2NlOE5yxU0Omn6x" version="24.2.3" type="device">
  <diagram name="Sivu-1" id="qFintRYrw67vzZHU6Rl4">
    <mxGraphModel dx="1793" dy="933" grid="1" gridSize="10" guides="1" tooltips="1" connect="1" arrows="1" fold="1" page="1" pageScale="1" pageWidth="827" pageHeight="1169" math="0" shadow="0">
      <root>
        <mxCell id="0" />
        <mxCell id="1" parent="0" />
        <mxCell id="wfhGA45HPN33eEDIdVkI-28" value="Start" style="ellipse;whiteSpace=wrap;html=1;" vertex="1" parent="1">
          <mxGeometry x="80" y="80" width="120" height="80" as="geometry" />
        </mxCell>
        <mxCell id="wfhGA45HPN33eEDIdVkI-53" style="edgeStyle=orthogonalEdgeStyle;rounded=0;orthogonalLoop=1;jettySize=auto;html=1;entryX=0;entryY=0.5;entryDx=0;entryDy=0;" edge="1" parent="1" source="wfhGA45HPN33eEDIdVkI-29" target="wfhGA45HPN33eEDIdVkI-31">
          <mxGeometry relative="1" as="geometry" />
        </mxCell>
        <mxCell id="wfhGA45HPN33eEDIdVkI-29" value="User inputs text" style="rounded=0;whiteSpace=wrap;html=1;" vertex="1" parent="1">
          <mxGeometry x="80" y="200" width="120" height="60" as="geometry" />
        </mxCell>
        <mxCell id="wfhGA45HPN33eEDIdVkI-30" value="" style="endArrow=classic;html=1;rounded=0;exitX=0.5;exitY=1;exitDx=0;exitDy=0;entryX=0.5;entryY=0;entryDx=0;entryDy=0;" edge="1" parent="1" source="wfhGA45HPN33eEDIdVkI-28" target="wfhGA45HPN33eEDIdVkI-29">
          <mxGeometry width="50" height="50" relative="1" as="geometry">
            <mxPoint x="190" y="270" as="sourcePoint" />
            <mxPoint x="240" y="220" as="targetPoint" />
          </mxGeometry>
        </mxCell>
        <mxCell id="wfhGA45HPN33eEDIdVkI-54" style="edgeStyle=orthogonalEdgeStyle;rounded=0;orthogonalLoop=1;jettySize=auto;html=1;entryX=0.5;entryY=0;entryDx=0;entryDy=0;" edge="1" parent="1" source="wfhGA45HPN33eEDIdVkI-31" target="wfhGA45HPN33eEDIdVkI-33">
          <mxGeometry relative="1" as="geometry" />
        </mxCell>
        <mxCell id="wfhGA45HPN33eEDIdVkI-31" value="User clicks save button" style="rounded=0;whiteSpace=wrap;html=1;" vertex="1" parent="1">
          <mxGeometry x="240" y="200" width="120" height="60" as="geometry" />
        </mxCell>
        <mxCell id="wfhGA45HPN33eEDIdVkI-55" style="edgeStyle=orthogonalEdgeStyle;rounded=0;orthogonalLoop=1;jettySize=auto;html=1;entryX=1;entryY=0.5;entryDx=0;entryDy=0;" edge="1" parent="1" source="wfhGA45HPN33eEDIdVkI-33" target="wfhGA45HPN33eEDIdVkI-35">
          <mxGeometry relative="1" as="geometry" />
        </mxCell>
        <mxCell id="wfhGA45HPN33eEDIdVkI-33" value="JavaScript code fetches the text from text field" style="rounded=0;whiteSpace=wrap;html=1;" vertex="1" parent="1">
          <mxGeometry x="240" y="300" width="120" height="60" as="geometry" />
        </mxCell>
        <mxCell id="wfhGA45HPN33eEDIdVkI-56" style="edgeStyle=orthogonalEdgeStyle;rounded=0;orthogonalLoop=1;jettySize=auto;html=1;entryX=0.5;entryY=0;entryDx=0;entryDy=0;" edge="1" parent="1" source="wfhGA45HPN33eEDIdVkI-35" target="wfhGA45HPN33eEDIdVkI-41">
          <mxGeometry relative="1" as="geometry" />
        </mxCell>
        <mxCell id="wfhGA45HPN33eEDIdVkI-35" value="JavaScript POST request to server" style="rounded=0;whiteSpace=wrap;html=1;" vertex="1" parent="1">
          <mxGeometry x="80" y="300" width="120" height="60" as="geometry" />
        </mxCell>
        <mxCell id="wfhGA45HPN33eEDIdVkI-57" style="edgeStyle=orthogonalEdgeStyle;rounded=0;orthogonalLoop=1;jettySize=auto;html=1;entryX=0;entryY=0.5;entryDx=0;entryDy=0;" edge="1" parent="1" source="wfhGA45HPN33eEDIdVkI-41" target="wfhGA45HPN33eEDIdVkI-43">
          <mxGeometry relative="1" as="geometry" />
        </mxCell>
        <mxCell id="wfhGA45HPN33eEDIdVkI-41" value="Server creates a new note" style="rounded=0;whiteSpace=wrap;html=1;" vertex="1" parent="1">
          <mxGeometry x="80" y="400" width="120" height="60" as="geometry" />
        </mxCell>
        <mxCell id="wfhGA45HPN33eEDIdVkI-58" style="edgeStyle=orthogonalEdgeStyle;rounded=0;orthogonalLoop=1;jettySize=auto;html=1;entryX=0.5;entryY=0;entryDx=0;entryDy=0;" edge="1" parent="1" source="wfhGA45HPN33eEDIdVkI-43" target="wfhGA45HPN33eEDIdVkI-45">
          <mxGeometry relative="1" as="geometry" />
        </mxCell>
        <mxCell id="wfhGA45HPN33eEDIdVkI-43" value="Server responds confirming note creation" style="rounded=0;whiteSpace=wrap;html=1;" vertex="1" parent="1">
          <mxGeometry x="240" y="400" width="120" height="60" as="geometry" />
        </mxCell>
        <mxCell id="wfhGA45HPN33eEDIdVkI-59" style="edgeStyle=orthogonalEdgeStyle;rounded=0;orthogonalLoop=1;jettySize=auto;html=1;entryX=1;entryY=0.5;entryDx=0;entryDy=0;" edge="1" parent="1" source="wfhGA45HPN33eEDIdVkI-45" target="wfhGA45HPN33eEDIdVkI-47">
          <mxGeometry relative="1" as="geometry" />
        </mxCell>
        <mxCell id="wfhGA45HPN33eEDIdVkI-45" value="JavaScript recieves confirmation" style="rounded=0;whiteSpace=wrap;html=1;" vertex="1" parent="1">
          <mxGeometry x="240" y="500" width="120" height="60" as="geometry" />
        </mxCell>
        <mxCell id="wfhGA45HPN33eEDIdVkI-60" style="edgeStyle=orthogonalEdgeStyle;rounded=0;orthogonalLoop=1;jettySize=auto;html=1;" edge="1" parent="1" source="wfhGA45HPN33eEDIdVkI-47" target="wfhGA45HPN33eEDIdVkI-49">
          <mxGeometry relative="1" as="geometry" />
        </mxCell>
        <mxCell id="wfhGA45HPN33eEDIdVkI-47" value="JavaScript updates page to dsiplay note" style="rounded=0;whiteSpace=wrap;html=1;" vertex="1" parent="1">
          <mxGeometry x="80" y="500" width="120" height="60" as="geometry" />
        </mxCell>
        <mxCell id="wfhGA45HPN33eEDIdVkI-49" value="END" style="ellipse;whiteSpace=wrap;html=1;" vertex="1" parent="1">
          <mxGeometry x="80" y="600" width="120" height="80" as="geometry" />
        </mxCell>
        <mxCell id="wfhGA45HPN33eEDIdVkI-68" style="edgeStyle=orthogonalEdgeStyle;rounded=0;orthogonalLoop=1;jettySize=auto;html=1;" edge="1" parent="1" source="wfhGA45HPN33eEDIdVkI-61" target="wfhGA45HPN33eEDIdVkI-62">
          <mxGeometry relative="1" as="geometry" />
        </mxCell>
        <mxCell id="wfhGA45HPN33eEDIdVkI-61" value="Start" style="ellipse;whiteSpace=wrap;html=1;" vertex="1" parent="1">
          <mxGeometry x="520" y="80" width="120" height="80" as="geometry" />
        </mxCell>
        <mxCell id="wfhGA45HPN33eEDIdVkI-69" style="edgeStyle=orthogonalEdgeStyle;rounded=0;orthogonalLoop=1;jettySize=auto;html=1;entryX=0;entryY=0.5;entryDx=0;entryDy=0;" edge="1" parent="1" source="wfhGA45HPN33eEDIdVkI-62" target="wfhGA45HPN33eEDIdVkI-63">
          <mxGeometry relative="1" as="geometry" />
        </mxCell>
        <mxCell id="wfhGA45HPN33eEDIdVkI-62" value="User opens the browser" style="rounded=0;whiteSpace=wrap;html=1;" vertex="1" parent="1">
          <mxGeometry x="520" y="200" width="120" height="60" as="geometry" />
        </mxCell>
        <mxCell id="wfhGA45HPN33eEDIdVkI-75" style="edgeStyle=orthogonalEdgeStyle;rounded=0;orthogonalLoop=1;jettySize=auto;html=1;entryX=0.5;entryY=0;entryDx=0;entryDy=0;" edge="1" parent="1" source="wfhGA45HPN33eEDIdVkI-63" target="wfhGA45HPN33eEDIdVkI-64">
          <mxGeometry relative="1" as="geometry" />
        </mxCell>
        <mxCell id="wfhGA45HPN33eEDIdVkI-63" value="Browser requests SPA" style="rounded=0;whiteSpace=wrap;html=1;" vertex="1" parent="1">
          <mxGeometry x="680" y="200" width="120" height="60" as="geometry" />
        </mxCell>
        <mxCell id="wfhGA45HPN33eEDIdVkI-76" style="edgeStyle=orthogonalEdgeStyle;rounded=0;orthogonalLoop=1;jettySize=auto;html=1;" edge="1" parent="1" source="wfhGA45HPN33eEDIdVkI-64" target="wfhGA45HPN33eEDIdVkI-65">
          <mxGeometry relative="1" as="geometry" />
        </mxCell>
        <mxCell id="wfhGA45HPN33eEDIdVkI-64" value="Server sends SPA" style="rounded=0;whiteSpace=wrap;html=1;" vertex="1" parent="1">
          <mxGeometry x="680" y="300" width="120" height="60" as="geometry" />
        </mxCell>
        <mxCell id="wfhGA45HPN33eEDIdVkI-77" style="edgeStyle=orthogonalEdgeStyle;rounded=0;orthogonalLoop=1;jettySize=auto;html=1;entryX=0.5;entryY=0;entryDx=0;entryDy=0;" edge="1" parent="1" source="wfhGA45HPN33eEDIdVkI-65" target="wfhGA45HPN33eEDIdVkI-66">
          <mxGeometry relative="1" as="geometry" />
        </mxCell>
        <mxCell id="wfhGA45HPN33eEDIdVkI-65" value="Browser loads SPA" style="rounded=0;whiteSpace=wrap;html=1;" vertex="1" parent="1">
          <mxGeometry x="520" y="300" width="120" height="60" as="geometry" />
        </mxCell>
        <mxCell id="wfhGA45HPN33eEDIdVkI-78" style="edgeStyle=orthogonalEdgeStyle;rounded=0;orthogonalLoop=1;jettySize=auto;html=1;entryX=0;entryY=0.5;entryDx=0;entryDy=0;" edge="1" parent="1" source="wfhGA45HPN33eEDIdVkI-66" target="wfhGA45HPN33eEDIdVkI-67">
          <mxGeometry relative="1" as="geometry" />
        </mxCell>
        <mxCell id="wfhGA45HPN33eEDIdVkI-66" value="User interacts with SPA" style="rounded=0;whiteSpace=wrap;html=1;" vertex="1" parent="1">
          <mxGeometry x="520" y="400" width="120" height="60" as="geometry" />
        </mxCell>
        <mxCell id="wfhGA45HPN33eEDIdVkI-74" style="edgeStyle=orthogonalEdgeStyle;rounded=0;orthogonalLoop=1;jettySize=auto;html=1;" edge="1" parent="1" source="wfhGA45HPN33eEDIdVkI-67" target="wfhGA45HPN33eEDIdVkI-70">
          <mxGeometry relative="1" as="geometry">
            <Array as="points">
              <mxPoint x="720" y="480" />
              <mxPoint x="720" y="480" />
            </Array>
          </mxGeometry>
        </mxCell>
        <mxCell id="wfhGA45HPN33eEDIdVkI-85" style="edgeStyle=orthogonalEdgeStyle;rounded=0;orthogonalLoop=1;jettySize=auto;html=1;entryX=0;entryY=0.5;entryDx=0;entryDy=0;" edge="1" parent="1" source="wfhGA45HPN33eEDIdVkI-67" target="wfhGA45HPN33eEDIdVkI-82">
          <mxGeometry relative="1" as="geometry" />
        </mxCell>
        <mxCell id="wfhGA45HPN33eEDIdVkI-67" value="User stays on SPA" style="rounded=0;whiteSpace=wrap;html=1;" vertex="1" parent="1">
          <mxGeometry x="680" y="400" width="120" height="60" as="geometry" />
        </mxCell>
        <mxCell id="wfhGA45HPN33eEDIdVkI-70" value="Yes?" style="rounded=0;whiteSpace=wrap;html=1;" vertex="1" parent="1">
          <mxGeometry x="680" y="500" width="120" height="60" as="geometry" />
        </mxCell>
        <mxCell id="wfhGA45HPN33eEDIdVkI-81" style="edgeStyle=orthogonalEdgeStyle;rounded=0;orthogonalLoop=1;jettySize=auto;html=1;" edge="1" parent="1">
          <mxGeometry relative="1" as="geometry">
            <mxPoint x="760" y="500" as="sourcePoint" />
            <mxPoint x="760" y="460" as="targetPoint" />
            <Array as="points">
              <mxPoint x="760" y="480" />
              <mxPoint x="760" y="480" />
            </Array>
          </mxGeometry>
        </mxCell>
        <mxCell id="wfhGA45HPN33eEDIdVkI-86" style="edgeStyle=orthogonalEdgeStyle;rounded=0;orthogonalLoop=1;jettySize=auto;html=1;" edge="1" parent="1" source="wfhGA45HPN33eEDIdVkI-82" target="wfhGA45HPN33eEDIdVkI-83">
          <mxGeometry relative="1" as="geometry" />
        </mxCell>
        <mxCell id="wfhGA45HPN33eEDIdVkI-82" value="No?" style="rounded=0;whiteSpace=wrap;html=1;" vertex="1" parent="1">
          <mxGeometry x="840" y="400" width="120" height="60" as="geometry" />
        </mxCell>
        <mxCell id="wfhGA45HPN33eEDIdVkI-87" style="edgeStyle=orthogonalEdgeStyle;rounded=0;orthogonalLoop=1;jettySize=auto;html=1;" edge="1" parent="1" source="wfhGA45HPN33eEDIdVkI-83" target="wfhGA45HPN33eEDIdVkI-84">
          <mxGeometry relative="1" as="geometry" />
        </mxCell>
        <mxCell id="wfhGA45HPN33eEDIdVkI-83" value="Browser closes" style="rounded=0;whiteSpace=wrap;html=1;" vertex="1" parent="1">
          <mxGeometry x="840" y="500" width="120" height="60" as="geometry" />
        </mxCell>
        <mxCell id="wfhGA45HPN33eEDIdVkI-84" value="END" style="ellipse;whiteSpace=wrap;html=1;" vertex="1" parent="1">
          <mxGeometry x="840" y="600" width="120" height="80" as="geometry" />
        </mxCell>
        <mxCell id="wfhGA45HPN33eEDIdVkI-99" style="edgeStyle=orthogonalEdgeStyle;rounded=0;orthogonalLoop=1;jettySize=auto;html=1;" edge="1" parent="1" source="wfhGA45HPN33eEDIdVkI-88" target="wfhGA45HPN33eEDIdVkI-89">
          <mxGeometry relative="1" as="geometry" />
        </mxCell>
        <mxCell id="wfhGA45HPN33eEDIdVkI-88" value="Start" style="ellipse;whiteSpace=wrap;html=1;" vertex="1" parent="1">
          <mxGeometry x="1120" y="80" width="120" height="80" as="geometry" />
        </mxCell>
        <mxCell id="wfhGA45HPN33eEDIdVkI-100" style="edgeStyle=orthogonalEdgeStyle;rounded=0;orthogonalLoop=1;jettySize=auto;html=1;entryX=0;entryY=0.5;entryDx=0;entryDy=0;" edge="1" parent="1" source="wfhGA45HPN33eEDIdVkI-89" target="wfhGA45HPN33eEDIdVkI-90">
          <mxGeometry relative="1" as="geometry" />
        </mxCell>
        <mxCell id="wfhGA45HPN33eEDIdVkI-89" value="User interacts with the SPA" style="rounded=0;whiteSpace=wrap;html=1;" vertex="1" parent="1">
          <mxGeometry x="1120" y="200" width="120" height="60" as="geometry" />
        </mxCell>
        <mxCell id="wfhGA45HPN33eEDIdVkI-101" style="edgeStyle=orthogonalEdgeStyle;rounded=0;orthogonalLoop=1;jettySize=auto;html=1;entryX=0.5;entryY=0;entryDx=0;entryDy=0;" edge="1" parent="1" source="wfhGA45HPN33eEDIdVkI-90" target="wfhGA45HPN33eEDIdVkI-91">
          <mxGeometry relative="1" as="geometry" />
        </mxCell>
        <mxCell id="wfhGA45HPN33eEDIdVkI-90" value="User creates new note" style="rounded=0;whiteSpace=wrap;html=1;" vertex="1" parent="1">
          <mxGeometry x="1280" y="200" width="120" height="60" as="geometry" />
        </mxCell>
        <mxCell id="wfhGA45HPN33eEDIdVkI-102" style="edgeStyle=orthogonalEdgeStyle;rounded=0;orthogonalLoop=1;jettySize=auto;html=1;entryX=1;entryY=0.5;entryDx=0;entryDy=0;" edge="1" parent="1" source="wfhGA45HPN33eEDIdVkI-91" target="wfhGA45HPN33eEDIdVkI-92">
          <mxGeometry relative="1" as="geometry" />
        </mxCell>
        <mxCell id="wfhGA45HPN33eEDIdVkI-91" value="JavaScript recieves the text from the text field" style="rounded=0;whiteSpace=wrap;html=1;" vertex="1" parent="1">
          <mxGeometry x="1280" y="300" width="120" height="60" as="geometry" />
        </mxCell>
        <mxCell id="wfhGA45HPN33eEDIdVkI-103" style="edgeStyle=orthogonalEdgeStyle;rounded=0;orthogonalLoop=1;jettySize=auto;html=1;entryX=0.5;entryY=0;entryDx=0;entryDy=0;" edge="1" parent="1" source="wfhGA45HPN33eEDIdVkI-92" target="wfhGA45HPN33eEDIdVkI-93">
          <mxGeometry relative="1" as="geometry" />
        </mxCell>
        <mxCell id="wfhGA45HPN33eEDIdVkI-92" value="JavaScript POST request to server" style="rounded=0;whiteSpace=wrap;html=1;" vertex="1" parent="1">
          <mxGeometry x="1120" y="300" width="120" height="60" as="geometry" />
        </mxCell>
        <mxCell id="wfhGA45HPN33eEDIdVkI-104" style="edgeStyle=orthogonalEdgeStyle;rounded=0;orthogonalLoop=1;jettySize=auto;html=1;entryX=0;entryY=0.5;entryDx=0;entryDy=0;" edge="1" parent="1" source="wfhGA45HPN33eEDIdVkI-93" target="wfhGA45HPN33eEDIdVkI-94">
          <mxGeometry relative="1" as="geometry" />
        </mxCell>
        <mxCell id="wfhGA45HPN33eEDIdVkI-93" value="Server creates new note" style="rounded=0;whiteSpace=wrap;html=1;" vertex="1" parent="1">
          <mxGeometry x="1120" y="400" width="120" height="60" as="geometry" />
        </mxCell>
        <mxCell id="wfhGA45HPN33eEDIdVkI-105" style="edgeStyle=orthogonalEdgeStyle;rounded=0;orthogonalLoop=1;jettySize=auto;html=1;entryX=0.5;entryY=0;entryDx=0;entryDy=0;" edge="1" parent="1" source="wfhGA45HPN33eEDIdVkI-94" target="wfhGA45HPN33eEDIdVkI-95">
          <mxGeometry relative="1" as="geometry" />
        </mxCell>
        <mxCell id="wfhGA45HPN33eEDIdVkI-94" value="Server responds confirming the note creation" style="rounded=0;whiteSpace=wrap;html=1;" vertex="1" parent="1">
          <mxGeometry x="1280" y="400" width="120" height="60" as="geometry" />
        </mxCell>
        <mxCell id="wfhGA45HPN33eEDIdVkI-106" style="edgeStyle=orthogonalEdgeStyle;rounded=0;orthogonalLoop=1;jettySize=auto;html=1;entryX=1;entryY=0.5;entryDx=0;entryDy=0;" edge="1" parent="1" source="wfhGA45HPN33eEDIdVkI-95" target="wfhGA45HPN33eEDIdVkI-96">
          <mxGeometry relative="1" as="geometry" />
        </mxCell>
        <mxCell id="wfhGA45HPN33eEDIdVkI-95" value="JavaScript recieves confirmation" style="rounded=0;whiteSpace=wrap;html=1;" vertex="1" parent="1">
          <mxGeometry x="1280" y="500" width="120" height="60" as="geometry" />
        </mxCell>
        <mxCell id="wfhGA45HPN33eEDIdVkI-107" style="edgeStyle=orthogonalEdgeStyle;rounded=0;orthogonalLoop=1;jettySize=auto;html=1;" edge="1" parent="1" source="wfhGA45HPN33eEDIdVkI-96" target="wfhGA45HPN33eEDIdVkI-98">
          <mxGeometry relative="1" as="geometry" />
        </mxCell>
        <mxCell id="wfhGA45HPN33eEDIdVkI-96" value="JavaScript updates page to display the new note" style="rounded=0;whiteSpace=wrap;html=1;" vertex="1" parent="1">
          <mxGeometry x="1120" y="500" width="120" height="60" as="geometry" />
        </mxCell>
        <mxCell id="wfhGA45HPN33eEDIdVkI-98" value="END" style="ellipse;whiteSpace=wrap;html=1;" vertex="1" parent="1">
          <mxGeometry x="1120" y="600" width="120" height="80" as="geometry" />
        </mxCell>
        <mxCell id="wfhGA45HPN33eEDIdVkI-108" value="0.4" style="text;html=1;align=center;verticalAlign=middle;whiteSpace=wrap;rounded=0;" vertex="1" parent="1">
          <mxGeometry x="20" y="100" width="60" height="30" as="geometry" />
        </mxCell>
        <mxCell id="wfhGA45HPN33eEDIdVkI-109" value="0.5" style="text;html=1;align=center;verticalAlign=middle;whiteSpace=wrap;rounded=0;" vertex="1" parent="1">
          <mxGeometry x="460" y="105" width="60" height="30" as="geometry" />
        </mxCell>
        <mxCell id="wfhGA45HPN33eEDIdVkI-110" value="0.6" style="text;html=1;align=center;verticalAlign=middle;whiteSpace=wrap;rounded=0;" vertex="1" parent="1">
          <mxGeometry x="1060" y="105" width="60" height="30" as="geometry" />
        </mxCell>
      </root>
    </mxGraphModel>
  </diagram>
</mxfile>
